/* XPM */
static char *ndnx_main[] = {
/* columns rows colors chars-per-pixel */
"32 32 247 2 ",
"   c #1E2127",
".  c #132435",
"X  c #14273B",
"o  c #1D2E3E",
"O  c #293035",
"+  c #092344",
"@  c #132B47",
"#  c #162E49",
"$  c #182F49",
"%  c #1C3043",
"&  c #142F50",
"*  c #163151",
"=  c #1B3858",
"-  c #253644",
";  c #203448",
":  c #263A4F",
">  c #293A48",
",  c #213B55",
"<  c #2B3F53",
"1  c #1A3B66",
"2  c #213F60",
"3  c #2D4254",
"4  c #324454",
"5  c #334758",
"6  c #36495B",
"7  c #244160",
"8  c #2E4964",
"9  c #24456D",
"0  c #2C4C6C",
"q  c #364D65",
"w  c #394F64",
"e  c #2A516F",
"r  c #3C5366",
"t  c #3B5469",
"y  c #234672",
"u  c #2A4C72",
"i  c #244B78",
"p  c #2C5171",
"a  c #2A517F",
"s  c #305A76",
"d  c #345478",
"f  c #345F79",
"g  c #32617A",
"h  c #435767",
"j  c #40576A",
"k  c #445A6C",
"l  c #445E73",
"z  c #405F7A",
"x  c #456077",
"c  c #496276",
"v  c #45617B",
"b  c #4A647B",
"n  c #5C707B",
"m  c #254E82",
"M  c #2E5686",
"N  c #275388",
"B  c #2F5A8C",
"V  c #325781",
"C  c #335984",
"Z  c #3A5D85",
"A  c #305C8F",
"S  c #2C5B95",
"D  c #396088",
"F  c #3A6495",
"G  c #35659D",
"H  c #38659C",
"J  c #3F6C9B",
"K  c #3D6CA4",
"L  c #3A6DAA",
"P  c #3D71AE",
"I  c #3E74B3",
"U  c #3C7ABE",
"Y  c #446481",
"T  c #4D6784",
"R  c #4D6B85",
"E  c #42658B",
"W  c #4D6D8D",
"Q  c #516F85",
"!  c #526F8C",
"~  c #4D708F",
"^  c #51708C",
"/  c #406690",
"(  c #4C6E92",
")  c #466F9A",
"_  c #4C7594",
"`  c #4C729D",
"'  c #5D7B95",
"]  c #547C9D",
"[  c #5D7A99",
"{  c #607682",
"}  c #667A85",
"|  c #416EA4",
" . c #4C77A6",
".. c #4274AB",
"X. c #567EA3",
"o. c #537DAA",
"O. c #4174B0",
"+. c #497BB3",
"@. c #467CB9",
"#. c #5F819B",
"$. c #7D858C",
"%. c #63829D",
"&. c #5782A5",
"*. c #5A84AB",
"=. c #4F83B0",
"-. c #4982BF",
";. c #5C8AB7",
":. c #5183BC",
">. c #5C8DBD",
",. c #6283A2",
"<. c #6B8BA3",
"1. c #6186AC",
"2. c #628CAC",
"3. c #6B8DAD",
"4. c #7591AB",
"5. c #7A92A8",
"6. c #6793B0",
"7. c #6E96BC",
"8. c #6C9BBC",
"9. c #7495B3",
"0. c #7B9BB6",
"q. c #7096BB",
"w. c #759ABB",
"e. c #7D9EBB",
"r. c #7CA4BC",
"t. c #4A84C5",
"y. c #4A88CE",
"u. c #5789C1",
"i. c #5F8FC1",
"p. c #538CCB",
"a. c #5391C3",
"s. c #5490CB",
"d. c #5A93CD",
"f. c #4B91D2",
"g. c #5392D2",
"h. c #5C9BD5",
"j. c #539FDB",
"k. c #5D9FDD",
"l. c #6794C0",
"z. c #6198CE",
"x. c #699DCD",
"c. c #6FA0CC",
"v. c #75A4C5",
"b. c #7DA3C6",
"n. c #74A5CC",
"m. c #7CA7CA",
"M. c #77A8CF",
"N. c #7BAACE",
"B. c #65A0D6",
"V. c #6DA5D7",
"C. c #64A4D9",
"Z. c #6BA9DA",
"A. c #73A9D3",
"S. c #7CACD2",
"D. c #71ADDB",
"F. c #7CB2DB",
"G. c #57A8E8",
"H. c #60A7E5",
"J. c #6BB1E4",
"K. c #7BB5E4",
"L. c #72BBE6",
"P. c #7CBCED",
"I. c #7DC2F1",
"U. c #8096A9",
"Y. c #889FB3",
"T. c #9CA8AF",
"R. c #82A0BD",
"E. c #88A2B9",
"W. c #9EA9B0",
"Q. c #95ACBF",
"!. c #98ADBE",
"~. c #A4ADB3",
"^. c #ABB5BA",
"/. c #82A5C3",
"(. c #87A9C5",
"). c #8DAAC1",
"_. c #82A7C8",
"`. c #84AACB",
"'. c #8AADCB",
"]. c #93AEC4",
"[. c #8DB0CD",
"{. c #9CB3C5",
"}. c #94B1CB",
"|. c #9FB7CA",
" X c #9BBACB",
".X c #81AFD2",
"XX c #84B3D5",
"oX c #89B5D6",
"OX c #83B5DA",
"+X c #88B5D8",
"@X c #86B8DD",
"#X c #8CBCDD",
"$X c #92B4D2",
"%X c #96B9D6",
"&X c #9ABAD5",
"*X c #93BDDE",
"=X c #9DBFDA",
"-X c #A1BCD5",
";X c #84B9E2",
":X c #8CBFE5",
">X c #80BFED",
",X c #91BFE0",
"<X c #9EC2D5",
"1X c #99C0DF",
"2X c #ABC3D7",
"3X c #A5C3DC",
"4X c #AAC5DB",
"5X c #8BC2E6",
"6X c #8CC4EA",
"7X c #8ACBEE",
"8X c #94C2E3",
"9X c #9FC6E3",
"0X c #93C6E9",
"qX c #9CCBEB",
"wX c #99D1EE",
"eX c #97D2F0",
"rX c #9AD6F2",
"tX c #9AD9F5",
"yX c #A6CAE5",
"uX c #B3CEE4",
"iX c #ACD2EC",
"pX c #B4D1E6",
"aX c #BCD4E7",
"sX c #B5D4EA",
"dX c #BBD5EA",
"fX c #BADAEF",
"gX c #A2D4F1",
"hX c #ADD7F0",
"jX c #A5DBF4",
"kX c #ADD9F2",
"lX c #ABDEFD",
"zX c #B4DBF3",
"xX c #BBDDF2",
"cX c #BCE1F6",
"vX c #B2E6F9",
"bX c #BBE5F8",
"nX c #C3DBEE",
"mX c #C4E5F6",
"MX c #C3E6F9",
"NX c #C7E8F9",
"BX c #CCECFB",
"VX c #D0EEFB",
"CX c #CCF1FD",
"ZX c #D2F3FE",
"AX c #D6FCFF",
"SX c #D8FDFF",
"DX c None",
/* pixels */
"DXDXDXDXDXDXDXDXDXDXDXDXDXDXDXDXDXDXDXDXDXDXDXDXDXDXDXDXDXDXDXDX",
"DXDXDXDXDXDXDXDXDXDXDXDXDXDXDXDXDXDXDXDXDXDXDXDXDXDXDXDXDXDXDXDX",
"DXDXDXDXDXDXDXDXDXDXDXq.`.[.$X%X-X-X&X'.q.DXDXDXDXDXDXDXDXDXDXDX",
"DXDXDXDXDXDXDXDXDXq.'.%X&X-X%X3X4X&XnXnXdX4X/.DXDXDXDXDXDXDXDXDX",
"DXDXDXDXDXDXDXDX/.$X$X+X'.$XsXdXsXcXcXnXaXnXnX4XDXDXDXDXDXDXDXDX",
"DXDXDXDXDXDX*./.[.[.[.+X8XiX8X+X%XyXxX8X*XuX-XnXuXe.DXDXDXDXDXDX",
"DXDXDXDXDXX.r.(.`..X@X@X*X8X0XqX5X5X5XqXuXdXsX*XnXuXw.DXDXDXDXDX",
"DXDXDXDXDX9.e.b.N..XF.;XyXzXcXmXhXtXjXrXwXNXmXsXdXaX4XDXDXDXDXDX",
"DXDXDXDX3.9.q.n.A.F.K.qXzXbXcXcXMXBXBXVXbXzXBXiXuXdXuX$XDXDXDXDX",
"DXDXDXDX3.3.q.c.A.D.:XzXzXzXcXMXNXBXBXVXBXtXMXxX0X$X4X4XDXDXDXDX",
"DXDXDX,.,.1.l.x.Z.Z.:XzXhXzXcXMXBXBXBXZXZXbXtXBXmXM.7.2X].DXDXDX",
"DXDXDX%.] *.i.z.B.C.0XhXhXzXcXmXBXBXCXCXBXCXtXgX@XV.>.R.E.DXDXDX",
"DXDXDX' ( o.u.d.h.h.V.iXzXzXxXmXMXMXBXBXBXBXcX7XL.C.>.*.<.DXDXDX",
"DXDX9.5.E  .:.p.g.k.H.K.:X>XI.lXZXAXSXSXAXAXCXcXJ.d.:.` ' ~ DXDX",
"DXDXe.|.( F +.t.g.O.0 d u s g f { } } } } n  XP.j.s.+.E ! ! DXDX",
"DXDX0.{.e.o.| @.y.` $.^.~.~.~.~.W.W.W.W.~.$.*.G.g.t.| Z R ~ DXDX",
"DXDX4.{.].%X>.P -.P m.zXyXjXiXiXiXiXiXiXjX<Xa.f.-.I F d b ~ DXDX",
"DXDX[ Q.].'.) G L A *.#XXXoXoXoXoXoXoXoX#Xr.=.U I H g 0 b Y DXDX",
"DXDXDXY.].r.C A H N 2.#XXXoXoXoXoXoX+XoX#Xr.J -.K C y 8 b DXDXDX",
"DXDXDX5.Q.4.p i A y &.#XXXoXXXoXF.oXoXoX#X&.i >.C e 7 q b DXDXDX",
"DXDXDX' !.r = 9 i 1 &.#X.XoXoXXXoXF.oXS.#X&.y D 9 2 , r Y DXDXDX",
"DXDXDXDX5.w $ $ * + _ #X.XS.F.S..X.XoX.X#X_ + & @ $ 3 b DXDXDXDX",
"DXDXDXDXR k . #.8.2.v.F..XoXS.S.S.oXS.S.F.r.2.8.6.% r v DXDXDXDX",
"DXDXDXDXDXb 3 r oX5XS.S.S.S.S.F.S..XS.S.S.S.#X#XQ 3 b DXDXDXDXDX",
"DXDXDXDXDXDXv > o <.#XM.M.F.S.S.N.F.S.N.M.+Xe.3 - l DXDXDXDXDXDX",
"DXDXDXDXDXDXDXc 6 X v oXF.M.M.M.M.M.M.S.+X' % 5 b DXDXDXDXDXDXDX",
"DXDXDXDXDXDXDXDXv t : 5 0.F.v.M.M.M.F.N.x - r v DXDXDXDXDXDXDXDX",
"DXDXDXDXDXDXDXDXDXDXr 5 6 <.oXM.M.F.0.j 5 t DXDXDXDXDXDXDXDXDXDX",
"DXDXDXDXDXDXDXDXDXDXDX. : < Q N.S.%.< % . DXDXDXDXDXDXDXDXDXDXDX",
"DXDXDXDXDXDXDXDXDXDXDXDXDXDXDX  O DXDXDXDXDXDXDXDXDXDXDXDXDXDXDX",
"DXDXDXDXDXDXDXDXDXDXDXDXDXDXDXDXDXDXDXDXDXDXDXDXDXDXDXDXDXDXDXDX",
"DXDXDXDXDXDXDXDXDXDXDXDXDXDXDXDXDXDXDXDXDXDXDXDXDXDXDXDXDXDXDXDX"
};
